<svg xmlns="http://www.w3.org/2000/svg" viewBox="0 0 640 512">
  <path fill="#a855f7" d="M160 304c0 29.7-17 55-42.2 67.5L128 416c0 17.7-14.3 32-32 32s-32-14.3-32-32V371.5C38.6 359 21.6 333.3 21.6 304c0-44.2 35.8-80 80-80s80 35.8 80 80zM384 128c0 35.3-28.7 64-64 64s-64-28.7-64-64s28.7-64 64-64s64 28.7 64 64zm64 0c0-70.7-57.3-128-128-128S192 57.3 192 128s57.3 128 128 128s128-57.3 128-128zM48 104c0-13.3-10.7-24-24-24S0 90.7 0 104s10.7 24 24 24s24-10.7 24-24zm32 0c0 17.7-14.3 32-32 32s-32-14.3-32-32s14.3-32 32-32s32 14.3 32 32zm80 80c0-13.3-10.7-24-24-24S112 170.7 112 184s10.7 24 24 24s24-10.7 24-24zm32 0c0 17.7-14.3 32-32 32s-32-14.3-32-32s14.3-32 32-32s32 14.3 32 32zM640 208c0-44.2-35.8-80-80-80s-80 35.8-80 80c0 29.7 17 55 42.2 67.5L512 304c0 17.7 14.3 32 32 32s32-14.3 32-32v-26.1c25.2-12.5 42.2-38.2 42.2-67.5zm-32 0c0 17.7-14.3 32-32 32s-32-14.3-32-32s14.3-32 32-32s32 14.3 32 32zm-144 80c0-13.3-10.7-24-24-24s-24 10.7-24 24s10.7 24 24 24s24-10.7 24-24zm32 0c0 17.7-14.3 32-32 32s-32-14.3-32-32s14.3-32 32-32s32 14.3 32 32zM448 304c0-44.2-35.8-80-80-80s-80 35.8-80 80c0 29.7 17 55 42.2 67.5L320 416c0 17.7 14.3 32 32 32s32-14.3 32-32v-26.1c25.2-12.5 42.2-38.2 42.2-67.5zm-32 0c0 17.7-14.3 32-32 32s-32-14.3-32-32s14.3-32 32-32s32 14.3 32 32zM288 408c0-13.3-10.7-24-24-24s-24 10.7-24 24s10.7 24 24 24s24-10.7 24-24zm32 0c0 17.7-14.3 32-32 32s-32-14.3-32-32s14.3-32 32-32s32 14.3 32 32z"/>
</svg>
