<svg xmlns="http://www.w3.org/2000/svg" viewBox="0 0 448 512">
  <path fill="#3776AB" d="M439.8 200.5c-7.7-30.9-22.3-54.2-53.4-54.2h-40.1v47.4c0 36.8-31.2 67.8-66.8 67.8H172.7c-29.2 0-53.4 25-53.4 54.3v101.7c0 29 25.2 46 53.4 54.3 33.8 9.9 66.3 11.7 106.8 0 26.9-7.8 53.4-23.5 53.4-54.3v-40.7H226.2v-13.6h160.2c31.1 0 42.6-21.7 53.4-54.2 6.1-18.4 6.1-43.8 0-60.6zM151.7 151.6c0-29.2 25-54.3 53.4-54.3h160.2V83.7c0-31.1-11.5-54.2-42.6-54.2H162.5c-31.1 0-45.7 23.3-53.4 54.2-6.1 18.4-6.1 43.8 0 60.6 7.7 30.9 22.3 54.2 53.4 54.2h40.1v-47.4c0-36.8 31.2-67.8 66.8-67.8h106.8c29.2 0 53.4-25 53.4-54.3V101.7c0-29-25.2-46-53.4-54.3-33.8-9.9-66.3-11.7-106.8 0-26.9 7.8-53.4 23.5-53.4 54.3v40.7h106.8v13.6H119.5c-31.1 0-42.6 21.7-53.4 54.2-6.1 18.4-6.1 43.8 0 60.6zM151.7 410.3c-11 0-20-9-20-20s9-20 20-20 20 9 20 20-9 20-20 20zm144.5-318.5c11 0 20 9 20 20s-9 20-20 20-20-9-20-20 9-20 20-20z"/>
</svg>
